<svg id="Layer_1" height="512" viewBox="0 0 512 512" width="512" xmlns="http://www.w3.org/2000/svg" data-name="Layer 1"><path d="m456.77 20.35a9.989 9.989 0 0 1 0 14.14l-40.33 40.33-7.91-7.9-7.9-7.9 40.34-40.33a9.989 9.989 0 0 1 14.14 0z" fill="#6fe3ff"/><path d="m346.33 295.91v58.25a19.994 19.994 0 0 1 -20 20h-250.51a19.994 19.994 0 0 1 -20-20v-58.25z" fill="#e48e66"/><path d="m346.33 262.39v33.52h-1.57-288.49-.45v-33.52h.45 288.49z" fill="#f8ec7d"/><path d="m346.33 205.33v57.06h-290.51v-57.06a19.994 19.994 0 0 1 20-20h250.51a19.994 19.994 0 0 1 20 20z" fill="#e48e66"/><path d="m318.79 429.2a33.52 33.52 0 1 1 -33.52 33.52 33.525 33.525 0 0 1 33.52-33.52z" fill="#f8ec7d"/><path d="m107.04 429.2a33.52 33.52 0 1 1 -33.52 33.52 33.525 33.525 0 0 1 33.52-33.52z" fill="#f8ec7d"/><g fill="#63316d"><path d="m46.3 410.2a6 6 0 0 0 6 6h292.3a50.758 50.758 0 0 0 50.7-50.7v-252.13a59.267 59.267 0 0 1 13.446-37.756l3.454 3.451a6 6 0 0 0 8.483 0l40.33-40.33a15.988 15.988 0 0 0 0-22.627l-1.658-1.657a15.9 15.9 0 0 0 -11.316-4.69h-.011a15.871 15.871 0 0 0 -11.3 4.689l-40.34 40.329a6 6 0 0 0 0 8.486l3.847 3.845a71.173 71.173 0 0 0 -16.935 46.26v252.13a38.744 38.744 0 0 1 -38.7 38.7h-292.3a6 6 0 0 0 -6 6zm398.918-387.272a3.956 3.956 0 0 1 2.816-1.17 3.979 3.979 0 0 1 2.832 1.177l1.664 1.663a3.988 3.988 0 0 1 -.006 5.65l-36.09 36.09-7.321-7.317z"/><path d="m67.52 462.72a39.525 39.525 0 1 0 39.52-39.52 39.565 39.565 0 0 0 -39.52 39.52zm67.05 0a27.525 27.525 0 1 1 -27.53-27.52 27.556 27.556 0 0 1 27.53 27.52z"/><path d="m279.27 462.72a39.525 39.525 0 1 0 39.52-39.52 39.565 39.565 0 0 0 -39.52 39.52zm67.05 0a27.525 27.525 0 1 1 -27.53-27.52 27.556 27.556 0 0 1 27.53 27.52z"/><path d="m233.76 144.62h-65.37a20.543 20.543 0 0 0 -20.52 20.52v14.19h-72.05a26.029 26.029 0 0 0 -26 26v148.83a26.029 26.029 0 0 0 26 26h250.51a26.029 26.029 0 0 0 26-26v-148.83a26.029 26.029 0 0 0 -26-26h-72.05v-14.19a20.543 20.543 0 0 0 -20.52-20.52zm-73.89 20.52a8.53 8.53 0 0 1 8.52-8.52h65.37a8.53 8.53 0 0 1 8.52 8.52v14.19h-82.41zm-98.05 103.25h278.51v21.52h-278.51zm264.51 99.77h-250.51a14.015 14.015 0 0 1 -14-14v-52.25h278.51v52.25a14.015 14.015 0 0 1 -14 14zm14-162.83v51.06h-278.51v-51.06a14.015 14.015 0 0 1 14-14h250.51a14.015 14.015 0 0 1 14 14z"/></g></svg>